<svg width="20" height="15" viewBox="0 0 20 15" fill="none" xmlns="http://www.w3.org/2000/svg">
<path d="M6.5 5.56C6.75333 5.56 6.88 6.02667 6.88 6.96C6.88 7.24 6.84667 7.57333 6.78 7.96C6.72667 8.33333 6.62 8.52 6.46 8.52H3.92V10.52H7.6C7.82667 10.52 7.98 10.8133 8.06 11.4C8.1 11.6533 8.12 11.9267 8.12 12.22C8.12 12.5 8.08 12.8667 8 13.32C7.92 13.7733 7.78667 14 7.6 14H0.76C0.253333 14 1.49012e-08 13.7933 1.49012e-08 13.38V0.52C1.49012e-08 0.173333 0.153333 0 0.46 0H7.62C7.9 0 8.04 0.593334 8.04 1.78C8.04 2.95333 7.9 3.54 7.62 3.54H3.92V5.56H6.5ZM13.9433 13.88C13.9433 13.9733 13.4633 14.02 12.5033 14.02C11.1699 13.98 10.5033 13.9067 10.5033 13.8V7.32H9.98328C9.63661 7.32 9.40995 7.02667 9.30328 6.44C9.27661 6.26667 9.26328 6.09333 9.26328 5.92C9.26328 5.50667 9.34328 5.09333 9.50328 4.68C9.74328 4.09333 10.1166 3.8 10.6233 3.8C11.1299 3.8 11.5833 3.92 11.9833 4.16C12.3833 4.4 12.6499 4.64 12.7833 4.88C13.6233 4.16 14.6233 3.8 15.7833 3.8C16.9433 3.8 17.7833 4.11333 18.3033 4.74C18.8233 5.36667 19.0833 6.39333 19.0833 7.82V13.82C19.0833 13.98 18.5099 14.06 17.3633 14.06C16.2299 14.06 15.6633 13.98 15.6633 13.82V8.04C15.6633 7.37333 15.4299 7.04 14.9633 7.04C14.8299 7.04 14.6433 7.1 14.4033 7.22C14.1633 7.32667 14.0099 7.40667 13.9433 7.46V13.88Z" fill="#B68D49"/>
</svg>
