<svg width="16" height="15" viewBox="0 0 16 15" fill="none" xmlns="http://www.w3.org/2000/svg">
<path d="M7.57998 -9.53674e-07C7.80664 -9.53674e-07 7.91998 0.593333 7.91998 1.78C7.91998 2.95333 7.80664 3.54 7.57998 3.54H3.91998V5.82H6.35998C6.58664 5.82 6.69998 6.34 6.69998 7.38C6.69998 8.40667 6.59331 8.92 6.37998 8.92H3.91998V13.74C3.91998 13.9267 3.66664 14.0467 3.15998 14.1C2.66664 14.1667 2.25331 14.2 1.91998 14.2L0.979976 14.16C0.326642 14.08 -2.43783e-05 13.9467 -2.43783e-05 13.76V0.52C-2.43783e-05 0.306666 0.0399756 0.166666 0.119976 0.099999C0.213309 0.0333323 0.346642 -9.53674e-07 0.519976 -9.53674e-07H7.57998ZM13.3058 13.98C13.3058 14.0733 12.6991 14.12 11.4858 14.12C10.2724 14.0933 9.66576 14.04 9.66576 13.96V7.32H9.12576C8.91242 7.32 8.73909 7.19333 8.60576 6.94C8.48576 6.67333 8.42576 6.34667 8.42576 5.96C8.42576 4.52 8.85242 3.8 9.70576 3.8C10.3058 3.8 10.8058 3.98667 11.2058 4.36C11.6058 4.72 11.8058 5.13333 11.8058 5.6C12.0858 5.05333 12.4591 4.62 12.9258 4.3C13.4058 3.96667 13.8924 3.8 14.3858 3.8C15.1591 3.8 15.6258 4 15.7858 4.4C15.8258 4.50667 15.8458 4.66667 15.8458 4.88C15.8458 5.08 15.7791 5.44667 15.6458 5.98C15.5258 6.51333 15.3991 6.9 15.2658 7.14C15.1324 7.38 15.0524 7.5 15.0258 7.5C14.9991 7.5 14.8724 7.45333 14.6458 7.36C14.4324 7.25333 14.2391 7.2 14.0658 7.2C13.5591 7.2 13.3058 7.6 13.3058 8.4V13.98Z" fill="#B68D49"/>
</svg>
