<svg width="105" height="19" viewBox="0 0 105 19" fill="none" xmlns="http://www.w3.org/2000/svg">
<path d="M6.90001 13.86C6.90001 14.1267 6.24001 14.26 4.92 14.26C3.60001 14.26 2.94001 14.1267 2.94001 13.86V3.82H0.540005C0.313338 3.82 0.153338 3.51333 0.0600049 2.9C0.0200049 2.60667 4.88386e-06 2.30667 4.88386e-06 2C4.88386e-06 1.69333 0.0200049 1.39333 0.0600049 1.1C0.153338 0.486667 0.313338 0.18 0.540005 0.18H9.24001C9.46667 0.18 9.62667 0.486667 9.72001 1.1C9.76001 1.39333 9.78001 1.69333 9.78001 2C9.78001 2.30667 9.76001 2.60667 9.72001 2.9C9.62667 3.51333 9.46667 3.82 9.24001 3.82H6.90001V13.86ZM14.9061 14.16C14.9061 14.2533 14.2994 14.3 13.0861 14.3C11.8728 14.2733 11.2661 14.22 11.2661 14.14V7.5H10.7261C10.5128 7.5 10.3394 7.37333 10.2061 7.12C10.0861 6.85333 10.0261 6.52667 10.0261 6.14C10.0261 4.7 10.4528 3.98 11.3061 3.98C11.9061 3.98 12.4061 4.16667 12.8061 4.54C13.2061 4.9 13.4061 5.31333 13.4061 5.78C13.6861 5.23333 14.0594 4.8 14.5261 4.48C15.0061 4.14667 15.4928 3.98 15.9861 3.98C16.7594 3.98 17.2261 4.18 17.3861 4.58C17.4261 4.68667 17.4461 4.84667 17.4461 5.06C17.4461 5.26 17.3794 5.62667 17.2461 6.16C17.1261 6.69333 16.9994 7.08 16.8661 7.32C16.7328 7.56 16.6528 7.68 16.6261 7.68C16.5994 7.68 16.4728 7.63333 16.2461 7.54C16.0328 7.43333 15.8394 7.38 15.6661 7.38C15.1594 7.38 14.9061 7.78 14.9061 8.58V14.16ZM19.7158 6.92C19.3425 6.25333 19.1558 5.71333 19.1558 5.3C19.1558 4.87333 19.2691 4.6 19.4958 4.48C20.2558 4.14667 21.2958 3.98 22.6158 3.98C23.9491 3.98 24.8891 4.29333 25.4358 4.92C25.9825 5.53333 26.2558 6.44667 26.2558 7.66V10.82H26.9358C27.1625 10.82 27.3358 10.9533 27.4558 11.22C27.5891 11.4867 27.6558 11.8533 27.6558 12.32C27.6558 12.7867 27.5358 13.2467 27.2958 13.7C27.0691 14.1533 26.7558 14.38 26.3558 14.38C25.6358 14.38 25.0558 14.1867 24.6158 13.8C24.4158 13.64 24.2625 13.4467 24.1558 13.22C23.5425 13.9933 22.5891 14.38 21.2958 14.38C20.3225 14.38 19.5025 14.0333 18.8358 13.34C18.1691 12.6467 17.8358 11.8267 17.8358 10.88C17.8358 8.70667 19.1358 7.62 21.7358 7.62H22.8358V7.42C22.8358 7.07333 22.7758 6.85333 22.6558 6.76C22.5491 6.65333 22.2891 6.6 21.8758 6.6C21.3691 6.6 20.6491 6.70667 19.7158 6.92ZM21.3158 10.6C21.3158 10.8933 21.3958 11.12 21.5558 11.28C21.7158 11.4267 21.9158 11.5 22.1558 11.5C22.4091 11.5 22.6358 11.4 22.8358 11.2V9.66H22.2758C21.6358 9.66 21.3158 9.97333 21.3158 10.6ZM28.7878 13.48V4.26C28.7878 4.18 29.3878 4.14 30.5878 4.14C31.8012 4.14 32.4078 4.17333 32.4078 4.24V14.9C32.4078 15.8867 31.9945 16.6667 31.1678 17.24C30.3545 17.8267 29.3345 18.12 28.1078 18.12C26.3878 18.12 25.5278 17.52 25.5278 16.32C25.5278 15.92 25.5945 15.5867 25.7278 15.32C25.8478 15.3333 26.0145 15.34 26.2278 15.34C27.2012 15.34 27.8678 15.1867 28.2278 14.88C28.6012 14.5733 28.7878 14.1067 28.7878 13.48ZM28.7878 3.08V0.2C28.7878 0.0666668 29.3878 2.38419e-07 30.5878 2.38419e-07C31.8012 2.38419e-07 32.4078 0.0400005 32.4078 0.120001V3.06C32.4078 3.15333 31.8012 3.2 30.5878 3.2C29.3878 3.2 28.7878 3.16 28.7878 3.08ZM41.7775 13.64C40.9375 14.1333 39.8575 14.38 38.5375 14.38C37.2175 14.38 36.1042 13.9333 35.1975 13.04C34.2908 12.1333 33.8375 10.8867 33.8375 9.3C33.8375 7.7 34.2708 6.41333 35.1375 5.44C36.0175 4.46667 37.1242 3.98 38.4575 3.98C39.7908 3.98 40.8175 4.32 41.5375 5C42.2708 5.68 42.6375 6.50667 42.6375 7.48C42.6375 9.64 41.3975 10.72 38.9175 10.72H37.5375C37.5375 11.12 37.6442 11.4 37.8575 11.56C38.0842 11.7067 38.4108 11.78 38.8375 11.78C39.7708 11.78 40.6575 11.5667 41.4975 11.14C41.5108 11.1267 41.5708 11.22 41.6775 11.42C41.9975 11.9933 42.1575 12.48 42.1575 12.88C42.1575 13.2667 42.0308 13.52 41.7775 13.64ZM39.2775 7.86C39.2775 7.3 39.0042 7.02 38.4575 7.02C38.2042 7.02 37.9842 7.1 37.7975 7.26C37.6242 7.40667 37.5375 7.62667 37.5375 7.92V8.54H38.6175C39.0575 8.54 39.2775 8.31333 39.2775 7.86ZM47.2241 9.22C47.2241 10.5267 47.7174 11.18 48.7041 11.18C49.3441 11.18 49.8774 11.0533 50.3041 10.8C50.5041 10.8 50.6641 11.1467 50.7841 11.84C50.9174 12.52 50.9841 12.9867 50.9841 13.24C50.9841 13.48 50.9507 13.64 50.8841 13.72C50.1774 14.16 49.2107 14.38 47.9841 14.38C46.7574 14.38 45.7107 13.9267 44.8441 13.02C43.9907 12.1 43.5641 10.8533 43.5641 9.28C43.5641 7.69333 43.9841 6.41333 44.8241 5.44C45.6774 4.46667 46.8041 3.98 48.2041 3.98C49.6174 3.98 50.5974 4.32 51.1441 5C51.2641 5.14667 51.3241 5.36667 51.3241 5.66C51.3241 5.94 51.2707 6.28667 51.1641 6.7C50.9241 7.55333 50.6107 8.04667 50.2241 8.18C50.1707 8.19333 50.0907 8.2 49.9841 8.2C49.8907 8.2 49.7707 8.12 49.6241 7.96C49.1041 7.44 48.6841 7.18 48.3641 7.18C48.0574 7.18 47.7907 7.34 47.5641 7.66C47.3374 7.98 47.2241 8.5 47.2241 9.22ZM57.0206 14.06C57.0206 14.22 56.4606 14.3 55.3406 14.3C54.0073 14.2467 53.3406 14.16 53.3406 14.04V6.96H52.3206C52.054 6.96 51.9206 6.5 51.9206 5.58C51.9206 5.34 51.9406 5.04667 51.9806 4.7C52.034 4.35333 52.134 4.18 52.2806 4.18H53.3406V2.42C53.3406 2.15333 53.9006 2.02 55.0206 2.02C56.154 2.02 56.7206 2.12667 56.7206 2.34V3.62L56.7406 4.18H58.4406C58.6673 4.18 58.7806 4.64667 58.7806 5.58C58.7806 6.51333 58.6673 6.98 58.4406 6.98H57.0206V14.06ZM60.6439 13C59.8172 12.08 59.4039 10.8067 59.4039 9.18C59.4039 7.55333 59.8172 6.28 60.6439 5.36C61.4839 4.44 62.6106 3.98 64.0239 3.98C65.4372 3.98 66.5572 4.44 67.3839 5.36C68.2106 6.28 68.6239 7.55333 68.6239 9.18C68.6239 10.8067 68.2106 12.08 67.3839 13C66.5572 13.92 65.4372 14.38 64.0239 14.38C62.6106 14.38 61.4839 13.92 60.6439 13ZM64.0239 7.32C63.2772 7.32 62.9039 7.93333 62.9039 9.16C62.9039 10.3867 63.2772 11 64.0239 11C64.7839 11 65.1639 10.3867 65.1639 9.16C65.1639 7.93333 64.7839 7.32 64.0239 7.32ZM73.6978 14.06C73.6978 14.1667 73.0845 14.22 71.8578 14.22C70.6445 14.22 70.0378 14.1733 70.0378 14.08V4.26C70.0378 4.16667 70.6445 4.12 71.8578 4.12C73.0845 4.12 73.6978 4.16 73.6978 4.24V14.06ZM73.6978 3.06C73.6978 3.15333 73.0845 3.2 71.8578 3.2C70.6445 3.2 70.0378 3.16 70.0378 3.08V0.2C70.0378 0.0666668 70.6445 2.38419e-07 71.8578 2.38419e-07C73.0845 2.38419e-07 73.6978 0.0400005 73.6978 0.120001V3.06ZM79.8866 14.16C79.8866 14.2533 79.2799 14.3 78.0666 14.3C76.8532 14.2733 76.2466 14.22 76.2466 14.14V7.5H75.7066C75.4932 7.5 75.3199 7.37333 75.1866 7.12C75.0666 6.85333 75.0066 6.52667 75.0066 6.14C75.0066 4.7 75.4332 3.98 76.2866 3.98C76.8866 3.98 77.3866 4.16667 77.7866 4.54C78.1866 4.9 78.3866 5.31333 78.3866 5.78C78.6666 5.23333 79.0399 4.8 79.5066 4.48C79.9866 4.14667 80.4732 3.98 80.9666 3.98C81.7399 3.98 82.2066 4.18 82.3666 4.58C82.4066 4.68667 82.4266 4.84667 82.4266 5.06C82.4266 5.26 82.3599 5.62667 82.2266 6.16C82.1066 6.69333 81.9799 7.08 81.8466 7.32C81.7132 7.56 81.6332 7.68 81.6066 7.68C81.5799 7.68 81.4532 7.63333 81.2266 7.54C81.0132 7.43333 80.8199 7.38 80.6466 7.38C80.1399 7.38 79.8866 7.78 79.8866 8.58V14.16ZM90.9963 13.64C90.1563 14.1333 89.0763 14.38 87.7563 14.38C86.4363 14.38 85.3229 13.9333 84.4163 13.04C83.5096 12.1333 83.0563 10.8867 83.0563 9.3C83.0563 7.7 83.4896 6.41333 84.3563 5.44C85.2363 4.46667 86.3429 3.98 87.6763 3.98C89.0096 3.98 90.0363 4.32 90.7563 5C91.4896 5.68 91.8563 6.50667 91.8563 7.48C91.8563 9.64 90.6163 10.72 88.1363 10.72H86.7563C86.7563 11.12 86.8629 11.4 87.0763 11.56C87.3029 11.7067 87.6296 11.78 88.0563 11.78C88.9896 11.78 89.8763 11.5667 90.7163 11.14C90.7296 11.1267 90.7896 11.22 90.8963 11.42C91.2163 11.9933 91.3763 12.48 91.3763 12.88C91.3763 13.2667 91.2496 13.52 90.9963 13.64ZM88.4963 7.86C88.4963 7.3 88.2229 7.02 87.6763 7.02C87.4229 7.02 87.2029 7.1 87.0163 7.26C86.8429 7.40667 86.7563 7.62667 86.7563 7.92V8.54H87.8363C88.2763 8.54 88.4963 8.31333 88.4963 7.86ZM97.2628 13.9C97.2628 14.1 96.6362 14.2 95.3828 14.2L94.2628 14.14C93.5962 14.0867 93.2628 13.9933 93.2628 13.86V0.440001C93.2628 0.213334 93.9295 0.1 95.2628 0.1C96.5962 0.1 97.2628 0.213334 97.2628 0.440001V5.56L99.7028 0.440001C99.7962 0.253334 100.329 0.160001 101.303 0.160001C103.076 0.160001 104.009 0.313334 104.103 0.620001C104.103 0.646667 104.096 0.673334 104.083 0.700001L100.603 6.98L104.643 12.56C104.643 12.5867 104.516 12.7 104.263 12.9C103.649 13.4333 102.929 13.8533 102.103 14.16C101.849 14.2533 101.596 14.3 101.343 14.3L100.863 14.26C100.436 14.1533 100.103 13.88 99.8628 13.44L97.5828 9.08H97.2628V13.9Z" fill="white"/>
</svg>
